<svg width="24" height="24" viewBox="0 0 24 24" fill="none" xmlns="http://www.w3.org/2000/svg">
<rect width="24" height="24" fill="white"/>
<path d="M18.75 5.31094H15V4.37344C15 3.61406 14.3859 3 13.6266 3H10.3687C9.61406 3 9 3.61406 9 4.37344V5.31094H5.25V6H6.23906L7.34531 19.6266C7.34531 20.3859 7.95937 21 8.71875 21H15.3281C16.0875 21 16.7016 20.3859 16.7016 19.6266L17.7938 6H18.75V5.31094ZM9.68438 4.37344C9.68438 3.99375 9.99375 3.68437 10.3687 3.68437H13.6266C14.0063 3.68437 14.3109 3.99375 14.3109 4.37344V5.31094H9.68438V4.37344ZM16.0125 19.5891V19.6266C16.0125 20.0063 15.7031 20.3156 15.3281 20.3156H8.71875C8.33906 20.3156 8.03437 20.0063 8.03437 19.6266V19.5891L6.92344 6H17.1047L16.0125 19.5891Z" fill="black"/>
<path d="M11.6719 7.5H12.3281V18.7969H11.6719V7.5ZM15 7.5H14.3156L13.8141 18.7969H14.4984L15 7.5ZM9.67969 7.5H9L9.50156 18.7969H10.1859L9.67969 7.5Z" fill="black"/>
</svg>
